<svg width="20" height="19" viewBox="0 0 20 19" fill="none" xmlns="http://www.w3.org/2000/svg">
<path d="M9.99121 18.7422C14.9746 18.7422 19.0879 14.6289 19.0879 9.6543C19.0879 4.67969 14.9658 0.566406 9.98242 0.566406C5.00781 0.566406 0.90332 4.67969 0.90332 9.6543C0.90332 14.6289 5.0166 18.7422 9.99121 18.7422ZM9.99121 12.6953C7.51269 12.6953 5.58789 13.583 4.65625 14.6025C3.46094 13.3105 2.73145 11.5703 2.73145 9.6543C2.73145 5.62012 5.95703 2.38574 9.98242 2.38574C14.0166 2.38574 17.2598 5.62012 17.2686 9.6543C17.2686 11.5703 16.5391 13.3105 15.335 14.6113C14.4033 13.583 12.4785 12.6953 9.99121 12.6953ZM9.99121 11.2539C11.6963 11.2715 13.0234 9.8125 13.0234 7.93164C13.0234 6.15625 11.6875 4.6709 9.99121 4.6709C8.30371 4.6709 6.95898 6.15625 6.96777 7.93164C6.97656 9.8125 8.29492 11.2451 9.99121 11.2539Z" fill="#4A6263"/>
</svg>
